<svg width="126" height="53" viewBox="0 0 126 53" fill="none" xmlns="http://www.w3.org/2000/svg">
<mask id="path-1-outside-1_2_8" maskUnits="userSpaceOnUse" x="1.23068" y="11.3034" width="125" height="30" fill="black">
<rect fill="white" x="1.23068" y="11.3034" width="125" height="30"/>
<path d="M2.99205 39.3034V19.667H5.90682V22.7352H6.1625C6.57159 21.6869 7.2321 20.873 8.14403 20.2934C9.05597 19.7053 10.1511 19.4113 11.4295 19.4113C12.725 19.4113 13.8031 19.7053 14.6639 20.2934C15.5332 20.873 16.2108 21.6869 16.6966 22.7352H16.9011C17.404 21.721 18.1582 20.9156 19.1639 20.319C20.1696 19.7139 21.3756 19.4113 22.7818 19.4113C24.5375 19.4113 25.9736 19.961 27.0901 21.0605C28.2065 22.1514 28.7648 23.8517 28.7648 26.1613V39.3034H25.7477V26.1613C25.7477 24.7125 25.3514 23.6769 24.5588 23.0548C23.7662 22.4326 22.833 22.1215 21.7591 22.1215C20.3784 22.1215 19.3088 22.5392 18.5503 23.3744C17.7918 24.2011 17.4125 25.2494 17.4125 26.5193V39.3034H14.3443V25.8545C14.3443 24.738 13.9821 23.8389 13.2577 23.1571C12.5332 22.4667 11.6 22.1215 10.458 22.1215C9.67386 22.1215 8.94091 22.3303 8.25909 22.748C7.5858 23.1656 7.04034 23.7451 6.62273 24.4866C6.21364 25.2196 6.00909 26.0676 6.00909 27.0306V39.3034H2.99205ZM42.2584 39.7125C40.4857 39.7125 38.9303 39.2906 37.5922 38.4468C36.2626 37.6031 35.2229 36.4227 34.4729 34.9056C33.7314 33.3886 33.3607 31.6159 33.3607 29.5875C33.3607 27.542 33.7314 25.7565 34.4729 24.2309C35.2229 22.7053 36.2626 21.5207 37.5922 20.6769C38.9303 19.8332 40.4857 19.4113 42.2584 19.4113C44.0311 19.4113 45.5822 19.8332 46.9118 20.6769C48.2499 21.5207 49.2896 22.7053 50.0311 24.2309C50.7811 25.7565 51.1561 27.542 51.1561 29.5875C51.1561 31.6159 50.7811 33.3886 50.0311 34.9056C49.2896 36.4227 48.2499 37.6031 46.9118 38.4468C45.5822 39.2906 44.0311 39.7125 42.2584 39.7125ZM42.2584 37.0022C43.605 37.0022 44.7129 36.6571 45.5822 35.9667C46.4516 35.2764 47.095 34.3687 47.5126 33.2437C47.9303 32.1187 48.1391 30.9 48.1391 29.5875C48.1391 28.275 47.9303 27.0519 47.5126 25.9184C47.095 24.7849 46.4516 23.8687 45.5822 23.1698C44.7129 22.471 43.605 22.1215 42.2584 22.1215C40.9118 22.1215 39.8038 22.471 38.9345 23.1698C38.0652 23.8687 37.4217 24.7849 37.0041 25.9184C36.5865 27.0519 36.3777 28.275 36.3777 29.5875C36.3777 30.9 36.5865 32.1187 37.0041 33.2437C37.4217 34.3687 38.0652 35.2764 38.9345 35.9667C39.8038 36.6571 40.9118 37.0022 42.2584 37.0022ZM71.1153 19.667L63.8539 39.3034H60.7857L53.5244 19.667H56.7971L62.2175 35.3147H62.4221L67.8425 19.667H71.1153ZM75.0975 39.3034V19.667H78.1146V39.3034H75.0975ZM76.6316 16.3943C76.0435 16.3943 75.5364 16.194 75.1103 15.7934C74.6927 15.3928 74.4839 14.9113 74.4839 14.3488C74.4839 13.7863 74.6927 13.3048 75.1103 12.9042C75.5364 12.5036 76.0435 12.3034 76.6316 12.3034C77.2197 12.3034 77.7225 12.5036 78.1401 12.9042C78.5663 13.3048 78.7793 13.7863 78.7793 14.3488C78.7793 14.9113 78.5663 15.3928 78.1401 15.7934C77.7225 16.194 77.2197 16.3943 76.6316 16.3943ZM91.8734 39.7125C89.9814 39.7125 88.3493 39.2948 86.9771 38.4596C85.6135 37.6159 84.5609 36.4397 83.8195 34.9312C83.0865 33.4142 82.72 31.65 82.72 29.6386C82.72 27.6272 83.0865 25.8545 83.8195 24.3204C84.5609 22.7778 85.5922 21.5761 86.9132 20.7153C88.2428 19.846 89.7939 19.4113 91.5666 19.4113C92.5893 19.4113 93.5993 19.5818 94.5964 19.9227C95.5936 20.2636 96.5013 20.8176 97.3195 21.5846C98.1376 22.3431 98.7896 23.3488 99.2754 24.6017C99.7612 25.8545 100.004 27.3971 100.004 29.2295V30.5079H84.8678V27.9H96.9359C96.9359 26.792 96.7143 25.8034 96.2712 24.934C95.8365 24.0647 95.2143 23.3786 94.4047 22.8758C93.6036 22.373 92.6575 22.1215 91.5666 22.1215C90.3649 22.1215 89.3251 22.4198 88.4473 23.0164C87.578 23.6045 86.9089 24.3715 86.4402 25.3176C85.9714 26.2636 85.7371 27.2778 85.7371 28.3602V30.0988C85.7371 31.5818 85.9928 32.8389 86.5041 33.8701C87.024 34.8928 87.7442 35.6727 88.6646 36.2096C89.5851 36.738 90.6547 37.0022 91.8734 37.0022C92.6661 37.0022 93.382 36.8914 94.0212 36.6698C94.6689 36.4397 95.2271 36.0988 95.6959 35.6471C96.1646 35.1869 96.5268 34.6159 96.7825 33.934L99.6973 34.7522C99.3905 35.7409 98.8749 36.6102 98.1504 37.3602C97.426 38.1017 96.5311 38.6812 95.4658 39.0988C94.4004 39.5079 93.203 39.7125 91.8734 39.7125Z"/>
<path d="M106.537 13.1215L113.287 24.0136H113.491L120.241 13.1215H123.974L115.741 26.2125L123.974 39.3034H120.241L113.491 28.6159H113.287L106.537 39.3034H102.804L111.241 26.2125L102.804 13.1215H106.537Z"/>
</mask>
<path d="M2.99205 39.3034V19.667H5.90682V22.7352H6.1625C6.57159 21.6869 7.2321 20.873 8.14403 20.2934C9.05597 19.7053 10.1511 19.4113 11.4295 19.4113C12.725 19.4113 13.8031 19.7053 14.6639 20.2934C15.5332 20.873 16.2108 21.6869 16.6966 22.7352H16.9011C17.404 21.721 18.1582 20.9156 19.1639 20.319C20.1696 19.7139 21.3756 19.4113 22.7818 19.4113C24.5375 19.4113 25.9736 19.961 27.0901 21.0605C28.2065 22.1514 28.7648 23.8517 28.7648 26.1613V39.3034H25.7477V26.1613C25.7477 24.7125 25.3514 23.6769 24.5588 23.0548C23.7662 22.4326 22.833 22.1215 21.7591 22.1215C20.3784 22.1215 19.3088 22.5392 18.5503 23.3744C17.7918 24.2011 17.4125 25.2494 17.4125 26.5193V39.3034H14.3443V25.8545C14.3443 24.738 13.9821 23.8389 13.2577 23.1571C12.5332 22.4667 11.6 22.1215 10.458 22.1215C9.67386 22.1215 8.94091 22.3303 8.25909 22.748C7.5858 23.1656 7.04034 23.7451 6.62273 24.4866C6.21364 25.2196 6.00909 26.0676 6.00909 27.0306V39.3034H2.99205ZM42.2584 39.7125C40.4857 39.7125 38.9303 39.2906 37.5922 38.4468C36.2626 37.6031 35.2229 36.4227 34.4729 34.9056C33.7314 33.3886 33.3607 31.6159 33.3607 29.5875C33.3607 27.542 33.7314 25.7565 34.4729 24.2309C35.2229 22.7053 36.2626 21.5207 37.5922 20.6769C38.9303 19.8332 40.4857 19.4113 42.2584 19.4113C44.0311 19.4113 45.5822 19.8332 46.9118 20.6769C48.2499 21.5207 49.2896 22.7053 50.0311 24.2309C50.7811 25.7565 51.1561 27.542 51.1561 29.5875C51.1561 31.6159 50.7811 33.3886 50.0311 34.9056C49.2896 36.4227 48.2499 37.6031 46.9118 38.4468C45.5822 39.2906 44.0311 39.7125 42.2584 39.7125ZM42.2584 37.0022C43.605 37.0022 44.7129 36.6571 45.5822 35.9667C46.4516 35.2764 47.095 34.3687 47.5126 33.2437C47.9303 32.1187 48.1391 30.9 48.1391 29.5875C48.1391 28.275 47.9303 27.0519 47.5126 25.9184C47.095 24.7849 46.4516 23.8687 45.5822 23.1698C44.7129 22.471 43.605 22.1215 42.2584 22.1215C40.9118 22.1215 39.8038 22.471 38.9345 23.1698C38.0652 23.8687 37.4217 24.7849 37.0041 25.9184C36.5865 27.0519 36.3777 28.275 36.3777 29.5875C36.3777 30.9 36.5865 32.1187 37.0041 33.2437C37.4217 34.3687 38.0652 35.2764 38.9345 35.9667C39.8038 36.6571 40.9118 37.0022 42.2584 37.0022ZM71.1153 19.667L63.8539 39.3034H60.7857L53.5244 19.667H56.7971L62.2175 35.3147H62.4221L67.8425 19.667H71.1153ZM75.0975 39.3034V19.667H78.1146V39.3034H75.0975ZM76.6316 16.3943C76.0435 16.3943 75.5364 16.194 75.1103 15.7934C74.6927 15.3928 74.4839 14.9113 74.4839 14.3488C74.4839 13.7863 74.6927 13.3048 75.1103 12.9042C75.5364 12.5036 76.0435 12.3034 76.6316 12.3034C77.2197 12.3034 77.7225 12.5036 78.1401 12.9042C78.5663 13.3048 78.7793 13.7863 78.7793 14.3488C78.7793 14.9113 78.5663 15.3928 78.1401 15.7934C77.7225 16.194 77.2197 16.3943 76.6316 16.3943ZM91.8734 39.7125C89.9814 39.7125 88.3493 39.2948 86.9771 38.4596C85.6135 37.6159 84.5609 36.4397 83.8195 34.9312C83.0865 33.4142 82.72 31.65 82.72 29.6386C82.72 27.6272 83.0865 25.8545 83.8195 24.3204C84.5609 22.7778 85.5922 21.5761 86.9132 20.7153C88.2428 19.846 89.7939 19.4113 91.5666 19.4113C92.5893 19.4113 93.5993 19.5818 94.5964 19.9227C95.5936 20.2636 96.5013 20.8176 97.3195 21.5846C98.1376 22.3431 98.7896 23.3488 99.2754 24.6017C99.7612 25.8545 100.004 27.3971 100.004 29.2295V30.5079H84.8678V27.9H96.9359C96.9359 26.792 96.7143 25.8034 96.2712 24.934C95.8365 24.0647 95.2143 23.3786 94.4047 22.8758C93.6036 22.373 92.6575 22.1215 91.5666 22.1215C90.3649 22.1215 89.3251 22.4198 88.4473 23.0164C87.578 23.6045 86.9089 24.3715 86.4402 25.3176C85.9714 26.2636 85.7371 27.2778 85.7371 28.3602V30.0988C85.7371 31.5818 85.9928 32.8389 86.5041 33.8701C87.024 34.8928 87.7442 35.6727 88.6646 36.2096C89.5851 36.738 90.6547 37.0022 91.8734 37.0022C92.6661 37.0022 93.382 36.8914 94.0212 36.6698C94.6689 36.4397 95.2271 36.0988 95.6959 35.6471C96.1646 35.1869 96.5268 34.6159 96.7825 33.934L99.6973 34.7522C99.3905 35.7409 98.8749 36.6102 98.1504 37.3602C97.426 38.1017 96.5311 38.6812 95.4658 39.0988C94.4004 39.5079 93.203 39.7125 91.8734 39.7125Z" fill="#FF0000"/>
<path d="M106.537 13.1215L113.287 24.0136H113.491L120.241 13.1215H123.974L115.741 26.2125L123.974 39.3034H120.241L113.491 28.6159H113.287L106.537 39.3034H102.804L111.241 26.2125L102.804 13.1215H106.537Z" fill="white"/>
<path d="M2.99205 39.3034H1.99205V40.3034H2.99205V39.3034ZM2.99205 19.667V18.667H1.99205V19.667H2.99205ZM5.90682 19.667H6.90682V18.667H5.90682V19.667ZM5.90682 22.7352H4.90682V23.7352H5.90682V22.7352ZM6.1625 22.7352V23.7352H6.8457L7.09408 23.0987L6.1625 22.7352ZM8.14403 20.2934L8.68041 21.1374L8.68598 21.1338L8.14403 20.2934ZM14.6639 20.2934L14.0998 21.1192L14.1092 21.1255L14.6639 20.2934ZM16.6966 22.7352L15.7893 23.1556L16.0578 23.7352H16.6966V22.7352ZM16.9011 22.7352V23.7352H17.5215L17.7971 23.1794L16.9011 22.7352ZM19.1639 20.319L19.6741 21.1791L19.6795 21.1758L19.1639 20.319ZM27.0901 21.0605L26.3884 21.773L26.3912 21.7757L27.0901 21.0605ZM28.7648 39.3034V40.3034H29.7648V39.3034H28.7648ZM25.7477 39.3034H24.7477V40.3034H25.7477V39.3034ZM24.5588 23.0548L23.9414 23.8414H23.9414L24.5588 23.0548ZM18.5503 23.3744L19.2871 24.0505L19.2906 24.0467L18.5503 23.3744ZM17.4125 39.3034V40.3034H18.4125V39.3034H17.4125ZM14.3443 39.3034H13.3443V40.3034H14.3443V39.3034ZM13.2577 23.1571L12.5678 23.881L12.5723 23.8853L13.2577 23.1571ZM8.25909 22.748L7.73677 21.8952L7.732 21.8982L8.25909 22.748ZM6.62273 24.4866L5.75141 23.9959L5.74953 23.9992L6.62273 24.4866ZM6.00909 39.3034V40.3034H7.00909V39.3034H6.00909ZM2.99205 39.3034H3.99205V19.667H2.99205H1.99205V39.3034H2.99205ZM2.99205 19.667V20.667H5.90682V19.667V18.667H2.99205V19.667ZM5.90682 19.667H4.90682V22.7352H5.90682H6.90682V19.667H5.90682ZM5.90682 22.7352V23.7352H6.1625V22.7352V21.7352H5.90682V22.7352ZM6.1625 22.7352L7.09408 23.0987C7.42929 22.2397 7.95572 21.5979 8.6804 21.1374L8.14403 20.2934L7.60767 19.4494C6.50848 20.148 5.7139 21.134 5.23092 22.3716L6.1625 22.7352ZM8.14403 20.2934L8.68598 21.1338C9.40938 20.6673 10.3085 20.4113 11.4295 20.4113V19.4113V18.4113C9.99374 18.4113 8.70255 18.7434 7.60209 19.453L8.14403 20.2934ZM11.4295 19.4113V20.4113C12.5729 20.4113 13.4417 20.6695 14.0998 21.1191L14.6639 20.2934L15.228 19.4677C14.1646 18.7412 12.8771 18.4113 11.4295 18.4113V19.4113ZM14.6639 20.2934L14.1092 21.1255C14.8095 21.5923 15.3724 22.2562 15.7893 23.1556L16.6966 22.7352L17.6039 22.3147C17.0491 21.1176 16.257 20.1536 15.2186 19.4614L14.6639 20.2934ZM16.6966 22.7352V23.7352H16.9011V22.7352V21.7352H16.6966V22.7352ZM16.9011 22.7352L17.7971 23.1794C18.2112 22.344 18.8287 21.6806 19.6741 21.179L19.1639 20.319L18.6537 19.4589C17.4878 20.1506 16.5967 21.0979 16.0052 22.291L16.9011 22.7352ZM19.1639 20.319L19.6795 21.1758C20.5012 20.6814 21.5211 20.4113 22.7818 20.4113V19.4113V18.4113C21.2301 18.4113 19.838 18.7463 18.6484 19.4621L19.1639 20.319ZM22.7818 19.4113V20.4113C24.3094 20.4113 25.4822 20.8806 26.3884 21.773L27.0901 21.0605L27.7917 20.3479C26.4649 19.0414 24.7656 18.4113 22.7818 18.4113V19.4113ZM27.0901 21.0605L26.3912 21.7757C27.2392 22.6043 27.7648 23.9921 27.7648 26.1613H28.7648H29.7648C29.7648 23.7112 29.1739 21.6984 27.7889 20.3452L27.0901 21.0605ZM28.7648 26.1613H27.7648V39.3034H28.7648H29.7648V26.1613H28.7648ZM28.7648 39.3034V38.3034H25.7477V39.3034V40.3034H28.7648V39.3034ZM25.7477 39.3034H26.7477V26.1613H25.7477H24.7477V39.3034H25.7477ZM25.7477 26.1613H26.7477C26.7477 24.546 26.3028 23.1524 25.1763 22.2682L24.5588 23.0548L23.9414 23.8414C24.4001 24.2015 24.7477 24.8789 24.7477 26.1613H25.7477ZM24.5588 23.0548L25.1763 22.2682C24.1955 21.4983 23.0411 21.1215 21.7591 21.1215V22.1215V23.1215C22.6248 23.1215 23.3369 23.3669 23.9414 23.8414L24.5588 23.0548ZM21.7591 22.1215V21.1215C20.1646 21.1215 18.7995 21.6125 17.81 22.7021L18.5503 23.3744L19.2906 24.0467C19.8181 23.4658 20.5922 23.1215 21.7591 23.1215V22.1215ZM18.5503 23.3744L17.8134 22.6983C16.8631 23.7341 16.4125 25.0345 16.4125 26.5193H17.4125H18.4125C18.4125 25.4642 18.7204 24.6681 19.2871 24.0505L18.5503 23.3744ZM17.4125 26.5193H16.4125V39.3034H17.4125H18.4125V26.5193H17.4125ZM17.4125 39.3034V38.3034H14.3443V39.3034V40.3034H17.4125V39.3034ZM14.3443 39.3034H15.3443V25.8545H14.3443H13.3443V39.3034H14.3443ZM14.3443 25.8545H15.3443C15.3443 24.4995 14.8938 23.3237 13.943 22.4289L13.2577 23.1571L12.5723 23.8853C13.0704 24.354 13.3443 24.9766 13.3443 25.8545H14.3443ZM13.2577 23.1571L13.9475 22.4331C13.0106 21.5403 11.8177 21.1215 10.458 21.1215V22.1215V23.1215C11.3823 23.1215 12.0559 23.3931 12.5678 23.881L13.2577 23.1571ZM10.458 22.1215V21.1215C9.48572 21.1215 8.57254 21.3833 7.73678 21.8952L8.25909 22.748L8.7814 23.6007C9.30929 23.2774 9.86201 23.1215 10.458 23.1215V22.1215ZM8.25909 22.748L7.732 21.8982C6.90501 22.4111 6.24539 23.1188 5.75142 23.9959L6.62273 24.4866L7.49404 24.9773C7.83529 24.3714 8.26658 23.9201 8.78619 23.5978L8.25909 22.748ZM6.62273 24.4866L5.74953 23.9992C5.24571 24.9019 5.00909 25.9224 5.00909 27.0306H6.00909H7.00909C7.00909 26.2127 7.18156 25.5372 7.49593 24.974L6.62273 24.4866ZM6.00909 27.0306H5.00909V39.3034H6.00909H7.00909V27.0306H6.00909ZM6.00909 39.3034V38.3034H2.99205V39.3034V40.3034H6.00909V39.3034ZM37.5922 38.4468L37.0564 39.2912L37.0588 39.2927L37.5922 38.4468ZM34.4729 34.9056L33.5744 35.3448L33.5764 35.3488L34.4729 34.9056ZM34.4729 24.2309L33.5754 23.7897L33.5735 23.7938L34.4729 24.2309ZM37.5922 20.6769L37.0588 19.8311L37.0564 19.8326L37.5922 20.6769ZM46.9118 20.6769L46.376 21.5213L46.3784 21.5228L46.9118 20.6769ZM50.0311 24.2309L49.1317 24.6681L49.1337 24.6721L50.0311 24.2309ZM50.0311 34.9056L49.1347 34.4624L49.1327 34.4665L50.0311 34.9056ZM46.9118 38.4468L46.3784 37.6009L46.376 37.6025L46.9118 38.4468ZM45.5822 35.9667L44.9604 35.1836V35.1836L45.5822 35.9667ZM47.5126 33.2437L48.4501 33.5917V33.5917L47.5126 33.2437ZM47.5126 25.9184L48.451 25.5727V25.5727L47.5126 25.9184ZM45.5822 23.1698L46.2088 22.3905V22.3905L45.5822 23.1698ZM38.9345 23.1698L38.308 22.3905V22.3905L38.9345 23.1698ZM37.0041 25.9184L36.0658 25.5727V25.5727L37.0041 25.9184ZM37.0041 33.2437L36.0666 33.5917V33.5917L37.0041 33.2437ZM38.9345 35.9667L39.5564 35.1836V35.1836L38.9345 35.9667ZM42.2584 39.7125V38.7125C40.651 38.7125 39.2852 38.3322 38.1256 37.601L37.5922 38.4468L37.0588 39.2927C38.5753 40.249 40.3203 40.7125 42.2584 40.7125V39.7125ZM37.5922 38.4468L38.128 37.6025C36.9647 36.8643 36.0444 35.828 35.3693 34.4625L34.4729 34.9056L33.5764 35.3488C34.4013 37.0173 35.5606 38.3419 37.0564 39.2912L37.5922 38.4468ZM34.4729 34.9056L35.3713 34.4665C34.7088 33.111 34.3607 31.4939 34.3607 29.5875H33.3607H32.3607C32.3607 31.7378 32.754 33.6662 33.5744 35.3448L34.4729 34.9056ZM33.3607 29.5875H34.3607C34.3607 27.6627 34.7092 26.0322 35.3723 24.6681L34.4729 24.2309L33.5735 23.7938C32.7535 25.4808 32.3607 27.4213 32.3607 29.5875H33.3607ZM34.4729 24.2309L35.3703 24.6721C36.0458 23.298 36.9661 22.2586 38.128 21.5213L37.5922 20.6769L37.0564 19.8326C35.5592 20.7828 34.3999 22.1127 33.5755 23.7897L34.4729 24.2309ZM37.5922 20.6769L38.1256 21.5228C39.2852 20.7916 40.651 20.4113 42.2584 20.4113V19.4113V18.4113C40.3203 18.4113 38.5753 18.8748 37.0588 19.8311L37.5922 20.6769ZM42.2584 19.4113V20.4113C43.8659 20.4113 45.2262 20.7916 46.376 21.5213L46.9118 20.6769L47.4476 19.8326C45.9383 18.8748 44.1963 18.4113 42.2584 18.4113V19.4113ZM46.9118 20.6769L46.3784 21.5228C47.5473 22.2599 48.4656 23.2976 49.1317 24.6681L50.0311 24.2309L50.9305 23.7938C50.1137 22.1131 48.9524 20.7815 47.4452 19.8311L46.9118 20.6769ZM50.0311 24.2309L49.1337 24.6721C49.8038 26.0353 50.1561 27.6643 50.1561 29.5875H51.1561H52.1561C52.1561 27.4197 51.7584 25.4777 50.9285 23.7897L50.0311 24.2309ZM51.1561 29.5875H50.1561C50.1561 31.4923 49.8043 33.1079 49.1347 34.4625L50.0311 34.9056L50.9275 35.3488C51.7579 33.6692 52.1561 31.7394 52.1561 29.5875H51.1561ZM50.0311 34.9056L49.1327 34.4665C48.467 35.8284 47.5487 36.863 46.3784 37.601L46.9118 38.4468L47.4452 39.2927C48.951 38.3432 50.1122 37.0169 50.9295 35.3448L50.0311 34.9056ZM46.9118 38.4468L46.376 37.6025C45.2262 38.3322 43.8659 38.7125 42.2584 38.7125V39.7125V40.7125C44.1963 40.7125 45.9383 40.249 47.4476 39.2912L46.9118 38.4468ZM42.2584 37.0022V38.0022C43.7811 38.0022 45.1226 37.6087 46.2041 36.7498L45.5822 35.9667L44.9604 35.1836C44.3032 35.7054 43.4288 36.0022 42.2584 36.0022V37.0022ZM45.5822 35.9667L46.2041 36.7498C47.2279 35.9368 47.9743 34.8735 48.4501 33.5917L47.5126 33.2437L46.5752 32.8957C46.2157 33.8639 45.6752 34.6159 44.9604 35.1836L45.5822 35.9667ZM47.5126 33.2437L48.4501 33.5917C48.9128 32.3454 49.1391 31.0076 49.1391 29.5875H48.1391H47.1391C47.1391 30.7923 46.9477 31.892 46.5752 32.8957L47.5126 33.2437ZM48.1391 29.5875H49.1391C49.1391 28.1672 48.9128 26.8261 48.451 25.5727L47.5126 25.9184L46.5743 26.2641C46.9477 27.2777 47.1391 28.3827 47.1391 29.5875H48.1391ZM47.5126 25.9184L48.451 25.5727C47.9761 24.2837 47.2311 23.2123 46.2088 22.3905L45.5822 23.1698L44.9557 23.9492C45.672 24.5251 46.214 25.2861 46.5743 26.2641L47.5126 25.9184ZM45.5822 23.1698L46.2088 22.3905C45.1272 21.5209 43.784 21.1215 42.2584 21.1215V22.1215V23.1215C43.426 23.1215 44.2987 23.421 44.9557 23.9492L45.5822 23.1698ZM42.2584 22.1215V21.1215C40.7328 21.1215 39.3896 21.5209 38.308 22.3905L38.9345 23.1698L39.5611 23.9492C40.2181 23.421 41.0908 23.1215 42.2584 23.1215V22.1215ZM38.9345 23.1698L38.308 22.3905C37.2856 23.2123 36.5407 24.2837 36.0658 25.5727L37.0041 25.9184L37.9425 26.2641C38.3028 25.2861 38.8448 24.5251 39.5611 23.9492L38.9345 23.1698ZM37.0041 25.9184L36.0658 25.5727C35.604 26.8261 35.3777 28.1672 35.3777 29.5875H36.3777H37.3777C37.3777 28.3827 37.569 27.2777 37.9425 26.2641L37.0041 25.9184ZM36.3777 29.5875H35.3777C35.3777 31.0076 35.604 32.3454 36.0666 33.5917L37.0041 33.2437L37.9416 32.8957C37.569 31.892 37.3777 30.7923 37.3777 29.5875H36.3777ZM37.0041 33.2437L36.0666 33.5917C36.5424 34.8735 37.2888 35.9368 38.3126 36.7498L38.9345 35.9667L39.5564 35.1836C38.8416 34.6159 38.301 33.8639 37.9416 32.8957L37.0041 33.2437ZM38.9345 35.9667L38.3126 36.7498C39.3941 37.6087 40.7356 38.0022 42.2584 38.0022V37.0022V36.0022C41.088 36.0022 40.2135 35.7054 39.5564 35.1836L38.9345 35.9667ZM71.1153 19.667L72.0532 20.0138L72.5512 18.667H71.1153V19.667ZM63.8539 39.3034V40.3034H64.5503L64.7918 39.6502L63.8539 39.3034ZM60.7857 39.3034L59.8478 39.6502L60.0893 40.3034H60.7857V39.3034ZM53.5244 19.667V18.667H52.0884L52.5864 20.0138L53.5244 19.667ZM56.7971 19.667L57.742 19.3397L57.509 18.667H56.7971V19.667ZM62.2175 35.3147L61.2726 35.642L61.5056 36.3147H62.2175V35.3147ZM62.4221 35.3147V36.3147H63.134L63.367 35.642L62.4221 35.3147ZM67.8425 19.667V18.667H67.1306L66.8976 19.3397L67.8425 19.667ZM71.1153 19.667L70.1773 19.3202L62.916 38.9565L63.8539 39.3034L64.7918 39.6502L72.0532 20.0138L71.1153 19.667ZM63.8539 39.3034V38.3034H60.7857V39.3034V40.3034H63.8539V39.3034ZM60.7857 39.3034L61.7237 38.9565L54.4623 19.3202L53.5244 19.667L52.5864 20.0138L59.8478 39.6502L60.7857 39.3034ZM53.5244 19.667V20.667H56.7971V19.667V18.667H53.5244V19.667ZM56.7971 19.667L55.8522 19.9943L61.2726 35.642L62.2175 35.3147L63.1625 34.9874L57.742 19.3397L56.7971 19.667ZM62.2175 35.3147V36.3147H62.4221V35.3147V34.3147H62.2175V35.3147ZM62.4221 35.3147L63.367 35.642L68.7875 19.9943L67.8425 19.667L66.8976 19.3397L61.4772 34.9874L62.4221 35.3147ZM67.8425 19.667V20.667H71.1153V19.667V18.667H67.8425V19.667ZM75.0975 39.3034H74.0975V40.3034H75.0975V39.3034ZM75.0975 19.667V18.667H74.0975V19.667H75.0975ZM78.1146 19.667H79.1146V18.667H78.1146V19.667ZM78.1146 39.3034V40.3034H79.1146V39.3034H78.1146ZM75.1103 15.7934L74.418 16.5151L74.4254 16.522L75.1103 15.7934ZM75.1103 12.9042L74.4254 12.1755L74.4181 12.1825L75.1103 12.9042ZM78.1401 12.9042L77.4479 13.6259L77.4552 13.6328L78.1401 12.9042ZM78.1401 15.7934L77.4552 15.0648L77.4479 15.0717L78.1401 15.7934ZM75.0975 39.3034H76.0975V19.667H75.0975H74.0975V39.3034H75.0975ZM75.0975 19.667V20.667H78.1146V19.667V18.667H75.0975V19.667ZM78.1146 19.667H77.1146V39.3034H78.1146H79.1146V19.667H78.1146ZM78.1146 39.3034V38.3034H75.0975V39.3034V40.3034H78.1146V39.3034ZM76.6316 16.3943V15.3943C76.2965 15.3943 76.0348 15.29 75.7952 15.0648L75.1103 15.7934L74.4254 16.522C75.0381 17.098 75.7906 17.3943 76.6316 17.3943V16.3943ZM75.1103 15.7934L75.8025 15.0717C75.5752 14.8537 75.4839 14.6302 75.4839 14.3488H74.4839H73.4839C73.4839 15.1925 73.8102 15.932 74.4181 16.5151L75.1103 15.7934ZM74.4839 14.3488H75.4839C75.4839 14.0675 75.5752 13.844 75.8025 13.6259L75.1103 12.9042L74.4181 12.1825C73.8102 12.7656 73.4839 13.5052 73.4839 14.3488H74.4839ZM75.1103 12.9042L75.7952 13.6328C76.0348 13.4077 76.2965 13.3034 76.6316 13.3034V12.3034V11.3034C75.7906 11.3034 75.0381 11.5996 74.4254 12.1756L75.1103 12.9042ZM76.6316 12.3034V13.3034C76.9663 13.3034 77.2198 13.4071 77.4479 13.6259L78.1401 12.9042L78.8324 12.1825C78.2252 11.6002 77.473 11.3034 76.6316 11.3034V12.3034ZM78.1401 12.9042L77.4552 13.6328C77.6893 13.8529 77.7793 14.0744 77.7793 14.3488H78.7793H79.7793C79.7793 13.4983 79.4432 12.7567 78.825 12.1756L78.1401 12.9042ZM78.7793 14.3488H77.7793C77.7793 14.6233 77.6893 14.8448 77.4552 15.0648L78.1401 15.7934L78.825 16.522C79.4432 15.9409 79.7793 15.1994 79.7793 14.3488H78.7793ZM78.1401 15.7934L77.4479 15.0717C77.2198 15.2905 76.9663 15.3943 76.6316 15.3943V16.3943V17.3943C77.473 17.3943 78.2252 17.0975 78.8324 16.5151L78.1401 15.7934ZM86.9771 38.4596L86.4509 39.31L86.4572 39.3138L86.9771 38.4596ZM83.8195 34.9312L82.919 35.3662L82.922 35.3723L83.8195 34.9312ZM83.8195 24.3204L82.9182 23.8872L82.9172 23.8893L83.8195 24.3204ZM86.9132 20.7153L87.4592 21.5531L87.4605 21.5523L86.9132 20.7153ZM94.5965 19.9227L94.9199 18.9764V18.9764L94.5965 19.9227ZM97.3195 21.5846L96.6355 22.3142L96.6396 22.3179L97.3195 21.5846ZM99.2754 24.6017L100.208 24.2401H100.208L99.2754 24.6017ZM100.004 30.5079V31.5079H101.004V30.5079H100.004ZM84.8678 30.5079H83.8678V31.5079H84.8678V30.5079ZM84.8678 27.9V26.9H83.8678V27.9H84.8678ZM96.9359 27.9V28.9H97.9359V27.9H96.9359ZM96.2712 24.934L95.3767 25.3813L95.3803 25.3882L96.2712 24.934ZM94.4047 22.8758L93.8731 23.7228L93.8771 23.7253L94.4047 22.8758ZM88.4473 23.0164L89.0076 23.8447L89.0094 23.8435L88.4473 23.0164ZM86.4402 25.3176L85.5442 24.8736V24.8736L86.4402 25.3176ZM86.5041 33.8701L85.6082 34.3144L85.6127 34.3233L86.5041 33.8701ZM88.6646 36.2096L88.1608 37.0734L88.1668 37.0769L88.6646 36.2096ZM94.0212 36.6698L94.3487 37.6147L94.3559 37.6121L94.0212 36.6698ZM95.6959 35.6471L96.3898 36.3672L96.3965 36.3607L95.6959 35.6471ZM96.7825 33.934L97.0528 32.9713L96.1686 32.7231L95.8462 33.5829L96.7825 33.934ZM99.6973 34.7522L100.652 35.0486L100.957 34.0672L99.9676 33.7894L99.6973 34.7522ZM98.1504 37.3602L98.8657 38.059L98.8697 38.0549L98.1504 37.3602ZM95.4658 39.0988L95.8243 40.0324L95.8307 40.0298L95.4658 39.0988ZM91.8734 39.7125V38.7125C90.1318 38.7125 88.6866 38.3295 87.4971 37.6054L86.9771 38.4596L86.4572 39.3138C88.012 40.2602 89.831 40.7125 91.8734 40.7125V39.7125ZM86.9771 38.4596L87.5033 37.6092C86.3073 36.8692 85.3797 35.8385 84.7169 34.4901L83.8195 34.9312L82.922 35.3723C83.7422 37.0409 84.9197 38.3625 86.451 39.31L86.9771 38.4596ZM83.8195 34.9312L84.7199 34.4962C84.064 33.1386 83.72 31.5282 83.72 29.6386H82.72H81.72C81.72 31.7717 82.109 33.6897 82.919 35.3662L83.8195 34.9312ZM82.72 29.6386H83.72C83.72 27.7494 84.0639 26.1285 84.7218 24.7515L83.8195 24.3204L82.9172 23.8893C82.1092 25.5805 81.72 27.5051 81.72 29.6386H82.72ZM83.8195 24.3204L84.7207 24.7536C85.39 23.3612 86.3044 22.3056 87.4592 21.5531L86.9132 20.7153L86.3673 19.8775C84.88 20.8466 83.7319 22.1943 82.9182 23.8872L83.8195 24.3204ZM86.9132 20.7153L87.4605 21.5523C88.6088 20.8014 89.9649 20.4113 91.5666 20.4113V19.4113V18.4113C89.6228 18.4113 87.8767 18.8905 86.366 19.8783L86.9132 20.7153ZM91.5666 19.4113V20.4113C92.476 20.4113 93.3767 20.5625 94.2729 20.8689L94.5965 19.9227L94.9199 18.9764C93.8219 18.601 92.7027 18.4113 91.5666 18.4113V19.4113ZM94.5965 19.9227L94.2729 20.8689C95.1275 21.161 95.914 21.6377 96.6355 22.3141L97.3195 21.5846L98.0034 20.8551C97.0886 19.9974 96.0598 19.3661 94.9199 18.9764L94.5965 19.9227ZM97.3195 21.5846L96.6396 22.3179C97.326 22.9543 97.9011 23.8233 98.3431 24.9632L99.2754 24.6017L100.208 24.2401C99.6782 22.8743 98.9492 21.7319 97.9993 20.8513L97.3195 21.5846ZM99.2754 24.6017L98.3431 24.9632C98.7711 26.0671 99.0041 27.4787 99.0041 29.2295H100.004H101.004C101.004 27.3155 100.751 25.6418 100.208 24.2401L99.2754 24.6017ZM100.004 29.2295H99.0041V30.5079H100.004H101.004V29.2295H100.004ZM100.004 30.5079V29.5079H84.8678V30.5079V31.5079H100.004V30.5079ZM84.8678 30.5079H85.8678V27.9H84.8678H83.8678V30.5079H84.8678ZM84.8678 27.9V28.9H96.9359V27.9V26.9H84.8678V27.9ZM96.9359 27.9H97.9359C97.9359 26.6557 97.6861 25.5079 97.1621 24.4799L96.2712 24.934L95.3803 25.3882C95.7425 26.0989 95.9359 26.9283 95.9359 27.9H96.9359ZM96.2712 24.934L97.1656 24.4868C96.6499 23.4555 95.9023 22.6287 94.9323 22.0263L94.4047 22.8758L93.8771 23.7253C94.5264 24.1285 95.0231 24.6739 95.3767 25.3813L96.2712 24.934ZM94.4047 22.8758L94.9363 22.0288C93.9527 21.4114 92.8162 21.1215 91.5666 21.1215V22.1215V23.1215C92.4989 23.1215 93.2544 23.3345 93.8731 23.7228L94.4047 22.8758ZM91.5666 22.1215V21.1215C90.1919 21.1215 88.9502 21.4656 87.8852 22.1894L88.4473 23.0164L89.0094 23.8435C89.7001 23.3741 90.5379 23.1215 91.5666 23.1215V22.1215ZM88.4473 23.0164L87.887 22.1881C86.8735 22.8737 86.0892 23.7735 85.5442 24.8736L86.4402 25.3176L87.3362 25.7615C87.7287 24.9695 88.2824 24.3353 89.0076 23.8447L88.4473 23.0164ZM86.4402 25.3176L85.5442 24.8736C85.0053 25.9612 84.7371 27.1278 84.7371 28.3602H85.7371H86.7371C86.7371 27.4278 86.9376 26.566 87.3362 25.7615L86.4402 25.3176ZM85.7371 28.3602H84.7371V30.0988H85.7371H86.7371V28.3602H85.7371ZM85.7371 30.0988H84.7371C84.7371 31.6929 85.0116 33.1111 85.6082 34.3144L86.5041 33.8701L87.4 33.4259C86.974 32.5666 86.7371 31.4706 86.7371 30.0988H85.7371ZM86.5041 33.8701L85.6127 34.3233C86.2127 35.5036 87.0616 36.4322 88.1608 37.0734L88.6646 36.2096L89.1685 35.3458C88.4268 34.9132 87.8354 34.2821 87.3956 33.417L86.5041 33.8701ZM88.6646 36.2096L88.1668 37.0769C89.26 37.7045 90.5063 38.0022 91.8734 38.0022V37.0022V36.0022C90.8031 36.0022 89.9102 35.7716 89.1625 35.3424L88.6646 36.2096ZM91.8734 37.0022V38.0022C92.7588 38.0022 93.5878 37.8784 94.3487 37.6147L94.0212 36.6698L93.6936 35.725C93.1761 35.9044 92.5733 36.0022 91.8734 36.0022V37.0022ZM94.0212 36.6698L94.3559 37.6121C95.1302 37.3371 95.8128 36.9232 96.3898 36.3672L95.6959 35.6471L95.002 34.927C94.6415 35.2745 94.2076 35.5424 93.6864 35.7275L94.0212 36.6698ZM95.6959 35.6471L96.3965 36.3607C96.9801 35.7877 97.4176 35.0886 97.7189 34.2852L96.7825 33.934L95.8462 33.5829C95.6361 34.1431 95.3492 34.5861 94.9953 34.9335L95.6959 35.6471ZM96.7825 33.934L96.5123 34.8968L99.427 35.715L99.6973 34.7522L99.9676 33.7894L97.0528 32.9713L96.7825 33.934ZM99.6973 34.7522L98.7422 34.4558C98.4821 35.2939 98.0478 36.0271 97.4312 36.6654L98.1504 37.3602L98.8697 38.0549C99.702 37.1933 100.299 36.1878 100.652 35.0486L99.6973 34.7522ZM98.1504 37.3602L97.4352 36.6613C96.8196 37.2914 96.048 37.7965 95.1008 38.1678L95.4658 39.0988L95.8307 40.0298C97.0142 39.5659 98.0324 38.9119 98.8657 38.059L98.1504 37.3602ZM95.4658 39.0988L95.1073 38.1653C94.1736 38.5238 93.1003 38.7125 91.8734 38.7125V39.7125V40.7125C93.3056 40.7125 94.6273 40.492 95.8242 40.0324L95.4658 39.0988ZM106.537 13.1215L107.387 12.5948L107.094 12.1215H106.537V13.1215ZM113.287 24.0136L112.437 24.5404L112.73 25.0136H113.287V24.0136ZM113.491 24.0136V25.0136H114.048L114.341 24.5404L113.491 24.0136ZM120.241 13.1215V12.1215H119.685L119.391 12.5948L120.241 13.1215ZM123.974 13.1215L124.821 13.6539L125.785 12.1215H123.974V13.1215ZM115.741 26.2125L114.895 25.6801L114.56 26.2125L114.895 26.7448L115.741 26.2125ZM123.974 39.3034V40.3034H125.785L124.821 38.771L123.974 39.3034ZM120.241 39.3034L119.396 39.8374L119.69 40.3034H120.241V39.3034ZM113.491 28.6159L114.337 28.0819L114.043 27.6159H113.491V28.6159ZM113.287 28.6159V27.6159H112.736L112.441 28.0819L113.287 28.6159ZM106.537 39.3034V40.3034H107.088L107.382 39.8374L106.537 39.3034ZM102.804 39.3034L101.963 38.7616L100.97 40.3034H102.804V39.3034ZM111.241 26.2125L112.082 26.7542L112.431 26.2125L112.082 25.6707L111.241 26.2125ZM102.804 13.1215V12.1215H100.97L101.963 13.6633L102.804 13.1215ZM106.537 13.1215L105.687 13.6483L112.437 24.5404L113.287 24.0136L114.137 23.4868L107.387 12.5948L106.537 13.1215ZM113.287 24.0136V25.0136H113.491V24.0136V23.0136H113.287V24.0136ZM113.491 24.0136L114.341 24.5404L121.091 13.6483L120.241 13.1215L119.391 12.5948L112.641 23.4868L113.491 24.0136ZM120.241 13.1215V14.1215H123.974V13.1215V12.1215H120.241V13.1215ZM123.974 13.1215L123.128 12.5892L114.895 25.6801L115.741 26.2125L116.588 26.7448L124.821 13.6539L123.974 13.1215ZM115.741 26.2125L114.895 26.7448L123.128 39.8357L123.974 39.3034L124.821 38.771L116.588 25.6801L115.741 26.2125ZM123.974 39.3034V38.3034H120.241V39.3034V40.3034H123.974V39.3034ZM120.241 39.3034L121.087 38.7694L114.337 28.0819L113.491 28.6159L112.646 29.1499L119.396 39.8374L120.241 39.3034ZM113.491 28.6159V27.6159H113.287V28.6159V29.6159H113.491V28.6159ZM113.287 28.6159L112.441 28.0819L105.691 38.7694L106.537 39.3034L107.382 39.8374L114.132 29.1499L113.287 28.6159ZM106.537 39.3034V38.3034H102.804V39.3034V40.3034H106.537V39.3034ZM102.804 39.3034L103.644 39.8451L112.082 26.7542L111.241 26.2125L110.401 25.6707L101.963 38.7616L102.804 39.3034ZM111.241 26.2125L112.082 25.6707L103.644 12.5798L102.804 13.1215L101.963 13.6633L110.401 26.7542L111.241 26.2125ZM102.804 13.1215V14.1215H106.537V13.1215V12.1215H102.804V13.1215Z" fill="#C00000" mask="url(#path-1-outside-1_2_8)"/>
<path d="M125.231 51.1813C125.231 51.1813 85.8501 45.63 62.2188 45.6834C37.0344 45.7402 0.230675 51.482 0.230675 51.482" stroke="#FF0B0B" stroke-width="3"/>
<path d="M0.230701 1.79067C0.230701 1.79067 39.6116 7.33941 63.2429 7.28456C88.4273 7.22611 125.231 1.48202 125.231 1.48202" stroke="#FF0B0B" stroke-width="3"/>
</svg>
