<svg width="46" height="41" viewBox="0 0 46 41" fill="none" xmlns="http://www.w3.org/2000/svg">
<path d="M1.00001 1.24606C1.00001 1.24606 14.7393 5.66089 22.9838 5.61725C31.7702 5.57074 44.6103 1.00049 44.6103 1.00049V40.7827C44.6103 40.7827 30.8711 36.1266 22.6265 36.1691C13.8402 36.2143 1 40.7827 1 40.7827L1.00001 1.24606Z" fill="url(#paint0_linear_140245_4948)" fill-opacity="0.15" style="mix-blend-mode:color-burn"/>
<path d="M1 1.30914C1 1.30914 14.7393 4.85788 22.9838 4.80303C31.7702 4.74458 44.6104 1.00049 44.6104 1.00049" stroke="#01B0B0" stroke-width="2" stroke-linecap="round"/>
<path d="M29.709 10.9038C31.5786 10.9039 33.1466 11.4938 34.3682 12.6968H34.3672C35.617 13.9188 36.1914 15.7746 36.1914 18.1538V31.2964C36.1911 31.5723 35.9674 31.7964 35.6914 31.7964H32.6748C32.3988 31.7964 32.1751 31.5723 32.1748 31.2964V18.1538C32.1748 16.7882 31.8024 15.932 31.1768 15.4409C30.4782 14.8926 29.6554 14.6138 28.6855 14.6138C27.4122 14.6139 26.4906 14.9949 25.8477 15.7026L25.8457 15.7046C25.1831 16.4268 24.8398 17.3497 24.8398 18.5122V31.2964C24.8396 31.5722 24.6156 31.7961 24.3398 31.7964H21.2715C20.9955 31.7964 20.7717 31.5723 20.7715 31.2964V17.8472C20.7715 16.85 20.4529 16.0894 19.8418 15.5142L19.8398 15.5112C19.2216 14.9221 18.4178 14.6138 17.3848 14.6138C16.6954 14.6138 16.0525 14.7948 15.4482 15.1646L15.4492 15.1655C14.8534 15.5351 14.3646 16.0494 13.9854 16.7222C13.6236 17.3703 13.4356 18.1326 13.4355 19.0229V31.2964C13.4353 31.5723 13.2115 31.7964 12.9355 31.7964H9.91895C9.64296 31.7964 9.4192 31.5723 9.41895 31.2964V11.6597C9.41895 11.3835 9.6428 11.1597 9.91895 11.1597H12.834C13.11 11.1598 13.334 11.3836 13.334 11.6597V13.2368C13.7296 12.6937 14.2192 12.2346 14.8027 11.8638C15.8084 11.2161 17.0006 10.9038 18.3564 10.9038C19.7254 10.9038 20.9061 11.2149 21.8672 11.8696H21.8682C22.632 12.3789 23.2521 13.0526 23.7373 13.8765C24.2632 13.0638 24.9652 12.3979 25.8359 11.8813C26.933 11.2221 28.2313 10.9038 29.709 10.9038Z" fill="#01B0B0" stroke="#01B0B0" stroke-linejoin="round"/>
<defs>
<linearGradient id="paint0_linear_140245_4948" x1="44.6104" y1="17.5421" x2="2.45247" y2="17.3199" gradientUnits="userSpaceOnUse">
<stop offset="0.00367075" stop-color="#017D7D" stop-opacity="0"/>
<stop offset="0.265446" stop-color="#019797" stop-opacity="0.5"/>
<stop offset="0.527222" stop-color="#01B0B0"/>
<stop offset="1" stop-color="#004A4A" stop-opacity="0"/>
</linearGradient>
</defs>
</svg>
