<svg width="144" height="53" viewBox="0 0 144 53" fill="none" xmlns="http://www.w3.org/2000/svg">
<g clip-path="url(#clip0_140244_4931)">
<path d="M0.263702 1.79058C0.263702 1.79058 45.2704 7.33932 72.2776 7.28447C101.06 7.22602 143.121 1.48193 143.121 1.48193V51.4819C143.121 51.4819 98.1144 45.6299 71.1072 45.6833C42.3251 45.7401 0.263672 51.4819 0.263672 51.4819L0.263702 1.79058Z" fill="url(#paint0_linear_140244_4931)" fill-opacity="0.15"/>
<path d="M0.263672 1.79058C0.263672 1.79058 45.2704 7.33932 72.2776 7.28447C101.06 7.22602 143.121 1.48193 143.121 1.48193" stroke="#01B0B0" stroke-width="3"/>
<mask id="path-3-outside-1_140244_4931" maskUnits="userSpaceOnUse" x="10.2012" y="11.7773" width="100" height="30" fill="black">
<rect fill="white" x="10.2012" y="11.7773" width="100" height="30"/>
<path d="M11.2012 39.7773V20.1409H14.1159V23.2091H14.3716C14.7807 22.1608 15.4412 21.3469 16.3532 20.7673C17.2651 20.1792 18.3602 19.8852 19.6386 19.8852C20.9341 19.8852 22.0122 20.1792 22.873 20.7673C23.7423 21.3469 24.4199 22.1608 24.9057 23.2091H25.1102C25.6131 22.1949 26.3673 21.3895 27.373 20.7929C28.3787 20.1878 29.5847 19.8852 30.9909 19.8852C32.7466 19.8852 34.1827 20.4349 35.2992 21.5344C36.4156 22.6253 36.9739 24.3256 36.9739 26.6352V39.7773H33.9568V26.6352C33.9568 25.1864 33.5605 24.1508 32.7679 23.5287C31.9753 22.9065 31.0421 22.5954 29.9682 22.5954C28.5875 22.5954 27.5179 23.0131 26.7594 23.8483C26.0009 24.675 25.6216 25.7233 25.6216 26.9932V39.7773H22.5534V26.3284C22.5534 25.2119 22.1912 24.3128 21.4668 23.631C20.7423 22.9406 19.8091 22.5954 18.6671 22.5954C17.883 22.5954 17.15 22.8042 16.4682 23.2219C15.7949 23.6395 15.2495 24.219 14.8319 24.9605C14.4228 25.6935 14.2182 26.5415 14.2182 27.5045V39.7773H11.2012ZM50.4675 40.1864C48.6948 40.1864 47.1394 39.7645 45.8013 38.9207C44.4717 38.077 43.432 36.8966 42.682 35.3795C41.9405 33.8625 41.5698 32.0898 41.5698 30.0614C41.5698 28.0159 41.9405 26.2304 42.682 24.7048C43.432 23.1792 44.4717 21.9946 45.8013 21.1508C47.1394 20.3071 48.6948 19.8852 50.4675 19.8852C52.2402 19.8852 53.7913 20.3071 55.1209 21.1508C56.459 21.9946 57.4987 23.1792 58.2402 24.7048C58.9902 26.2304 59.3652 28.0159 59.3652 30.0614C59.3652 32.0898 58.9902 33.8625 58.2402 35.3795C57.4987 36.8966 56.459 38.077 55.1209 38.9207C53.7913 39.7645 52.2402 40.1864 50.4675 40.1864ZM50.4675 37.4761C51.8141 37.4761 52.922 37.131 53.7913 36.4406C54.6607 35.7503 55.3041 34.8426 55.7217 33.7176C56.1394 32.5926 56.3482 31.3739 56.3482 30.0614C56.3482 28.7489 56.1394 27.5258 55.7217 26.3923C55.3041 25.2588 54.6607 24.3426 53.7913 23.6437C52.922 22.9449 51.8141 22.5954 50.4675 22.5954C49.1209 22.5954 48.0129 22.9449 47.1436 23.6437C46.2743 24.3426 45.6308 25.2588 45.2132 26.3923C44.7956 27.5258 44.5868 28.7489 44.5868 30.0614C44.5868 31.3739 44.7956 32.5926 45.2132 33.7176C45.6308 34.8426 46.2743 35.7503 47.1436 36.4406C48.0129 37.131 49.1209 37.4761 50.4675 37.4761ZM79.3244 20.1409L72.063 39.7773H68.9948L61.7335 20.1409H65.0062L70.4266 35.7886H70.6312L76.0516 20.1409H79.3244ZM83.3066 39.7773V20.1409H86.3237V39.7773H83.3066ZM84.8407 16.8682C84.2526 16.8682 83.7455 16.6679 83.3194 16.2673C82.9018 15.8667 82.693 15.3852 82.693 14.8227C82.693 14.2602 82.9018 13.7787 83.3194 13.3781C83.7455 12.9775 84.2526 12.7773 84.8407 12.7773C85.4288 12.7773 85.9316 12.9775 86.3492 13.3781C86.7754 13.7787 86.9884 14.2602 86.9884 14.8227C86.9884 15.3852 86.7754 15.8667 86.3492 16.2673C85.9316 16.6679 85.4288 16.8682 84.8407 16.8682ZM100.083 40.1864C98.1905 40.1864 96.5584 39.7687 95.1862 38.9335C93.8226 38.0898 92.77 36.9136 92.0286 35.4051C91.2956 33.8881 90.9291 32.1239 90.9291 30.1125C90.9291 28.1011 91.2956 26.3284 92.0286 24.7943C92.77 23.2517 93.8013 22.05 95.1223 21.1892C96.4519 20.3199 98.003 19.8852 99.7757 19.8852C100.798 19.8852 101.808 20.0557 102.806 20.3966C103.803 20.7375 104.71 21.2915 105.529 22.0585C106.347 22.817 106.999 23.8227 107.485 25.0756C107.97 26.3284 108.213 27.871 108.213 29.7034V30.9818H93.0769V28.3739H105.145C105.145 27.2659 104.923 26.2773 104.48 25.4079C104.046 24.5386 103.423 23.8525 102.614 23.3497C101.813 22.8469 100.867 22.5954 99.7757 22.5954C98.574 22.5954 97.5342 22.8937 96.6564 23.4903C95.7871 24.0784 95.118 24.8454 94.6493 25.7915C94.1805 26.7375 93.9462 27.7517 93.9462 28.8341V30.5727C93.9462 32.0557 94.2019 33.3128 94.7132 34.344C95.2331 35.3667 95.9533 36.1466 96.8737 36.6835C97.7942 37.2119 98.8638 37.4761 100.083 37.4761C100.875 37.4761 101.591 37.3653 102.23 37.1437C102.878 36.9136 103.436 36.5727 103.905 36.121C104.374 35.6608 104.736 35.0898 104.992 34.4079L107.906 35.2261C107.6 36.2148 107.084 37.0841 106.36 37.8341C105.635 38.5756 104.74 39.1551 103.675 39.5727C102.61 39.9818 101.412 40.1864 100.083 40.1864Z"/>
</mask>
<path d="M11.2012 39.7773V20.1409H14.1159V23.2091H14.3716C14.7807 22.1608 15.4412 21.3469 16.3532 20.7673C17.2651 20.1792 18.3602 19.8852 19.6386 19.8852C20.9341 19.8852 22.0122 20.1792 22.873 20.7673C23.7423 21.3469 24.4199 22.1608 24.9057 23.2091H25.1102C25.6131 22.1949 26.3673 21.3895 27.373 20.7929C28.3787 20.1878 29.5847 19.8852 30.9909 19.8852C32.7466 19.8852 34.1827 20.4349 35.2992 21.5344C36.4156 22.6253 36.9739 24.3256 36.9739 26.6352V39.7773H33.9568V26.6352C33.9568 25.1864 33.5605 24.1508 32.7679 23.5287C31.9753 22.9065 31.0421 22.5954 29.9682 22.5954C28.5875 22.5954 27.5179 23.0131 26.7594 23.8483C26.0009 24.675 25.6216 25.7233 25.6216 26.9932V39.7773H22.5534V26.3284C22.5534 25.2119 22.1912 24.3128 21.4668 23.631C20.7423 22.9406 19.8091 22.5954 18.6671 22.5954C17.883 22.5954 17.15 22.8042 16.4682 23.2219C15.7949 23.6395 15.2495 24.219 14.8319 24.9605C14.4228 25.6935 14.2182 26.5415 14.2182 27.5045V39.7773H11.2012ZM50.4675 40.1864C48.6948 40.1864 47.1394 39.7645 45.8013 38.9207C44.4717 38.077 43.432 36.8966 42.682 35.3795C41.9405 33.8625 41.5698 32.0898 41.5698 30.0614C41.5698 28.0159 41.9405 26.2304 42.682 24.7048C43.432 23.1792 44.4717 21.9946 45.8013 21.1508C47.1394 20.3071 48.6948 19.8852 50.4675 19.8852C52.2402 19.8852 53.7913 20.3071 55.1209 21.1508C56.459 21.9946 57.4987 23.1792 58.2402 24.7048C58.9902 26.2304 59.3652 28.0159 59.3652 30.0614C59.3652 32.0898 58.9902 33.8625 58.2402 35.3795C57.4987 36.8966 56.459 38.077 55.1209 38.9207C53.7913 39.7645 52.2402 40.1864 50.4675 40.1864ZM50.4675 37.4761C51.8141 37.4761 52.922 37.131 53.7913 36.4406C54.6607 35.7503 55.3041 34.8426 55.7217 33.7176C56.1394 32.5926 56.3482 31.3739 56.3482 30.0614C56.3482 28.7489 56.1394 27.5258 55.7217 26.3923C55.3041 25.2588 54.6607 24.3426 53.7913 23.6437C52.922 22.9449 51.8141 22.5954 50.4675 22.5954C49.1209 22.5954 48.0129 22.9449 47.1436 23.6437C46.2743 24.3426 45.6308 25.2588 45.2132 26.3923C44.7956 27.5258 44.5868 28.7489 44.5868 30.0614C44.5868 31.3739 44.7956 32.5926 45.2132 33.7176C45.6308 34.8426 46.2743 35.7503 47.1436 36.4406C48.0129 37.131 49.1209 37.4761 50.4675 37.4761ZM79.3244 20.1409L72.063 39.7773H68.9948L61.7335 20.1409H65.0062L70.4266 35.7886H70.6312L76.0516 20.1409H79.3244ZM83.3066 39.7773V20.1409H86.3237V39.7773H83.3066ZM84.8407 16.8682C84.2526 16.8682 83.7455 16.6679 83.3194 16.2673C82.9018 15.8667 82.693 15.3852 82.693 14.8227C82.693 14.2602 82.9018 13.7787 83.3194 13.3781C83.7455 12.9775 84.2526 12.7773 84.8407 12.7773C85.4288 12.7773 85.9316 12.9775 86.3492 13.3781C86.7754 13.7787 86.9884 14.2602 86.9884 14.8227C86.9884 15.3852 86.7754 15.8667 86.3492 16.2673C85.9316 16.6679 85.4288 16.8682 84.8407 16.8682ZM100.083 40.1864C98.1905 40.1864 96.5584 39.7687 95.1862 38.9335C93.8226 38.0898 92.77 36.9136 92.0286 35.4051C91.2956 33.8881 90.9291 32.1239 90.9291 30.1125C90.9291 28.1011 91.2956 26.3284 92.0286 24.7943C92.77 23.2517 93.8013 22.05 95.1223 21.1892C96.4519 20.3199 98.003 19.8852 99.7757 19.8852C100.798 19.8852 101.808 20.0557 102.806 20.3966C103.803 20.7375 104.71 21.2915 105.529 22.0585C106.347 22.817 106.999 23.8227 107.485 25.0756C107.97 26.3284 108.213 27.871 108.213 29.7034V30.9818H93.0769V28.3739H105.145C105.145 27.2659 104.923 26.2773 104.48 25.4079C104.046 24.5386 103.423 23.8525 102.614 23.3497C101.813 22.8469 100.867 22.5954 99.7757 22.5954C98.574 22.5954 97.5342 22.8937 96.6564 23.4903C95.7871 24.0784 95.118 24.8454 94.6493 25.7915C94.1805 26.7375 93.9462 27.7517 93.9462 28.8341V30.5727C93.9462 32.0557 94.2019 33.3128 94.7132 34.344C95.2331 35.3667 95.9533 36.1466 96.8737 36.6835C97.7942 37.2119 98.8638 37.4761 100.083 37.4761C100.875 37.4761 101.591 37.3653 102.23 37.1437C102.878 36.9136 103.436 36.5727 103.905 36.121C104.374 35.6608 104.736 35.0898 104.992 34.4079L107.906 35.2261C107.6 36.2148 107.084 37.0841 106.36 37.8341C105.635 38.5756 104.74 39.1551 103.675 39.5727C102.61 39.9818 101.412 40.1864 100.083 40.1864Z" fill="#01B0B0"/>
<path d="M11.2012 39.7773V20.1409H14.1159V23.2091H14.3716C14.7807 22.1608 15.4412 21.3469 16.3532 20.7673C17.2651 20.1792 18.3602 19.8852 19.6386 19.8852C20.9341 19.8852 22.0122 20.1792 22.873 20.7673C23.7423 21.3469 24.4199 22.1608 24.9057 23.2091H25.1102C25.6131 22.1949 26.3673 21.3895 27.373 20.7929C28.3787 20.1878 29.5847 19.8852 30.9909 19.8852C32.7466 19.8852 34.1827 20.4349 35.2992 21.5344C36.4156 22.6253 36.9739 24.3256 36.9739 26.6352V39.7773H33.9568V26.6352C33.9568 25.1864 33.5605 24.1508 32.7679 23.5287C31.9753 22.9065 31.0421 22.5954 29.9682 22.5954C28.5875 22.5954 27.5179 23.0131 26.7594 23.8483C26.0009 24.675 25.6216 25.7233 25.6216 26.9932V39.7773H22.5534V26.3284C22.5534 25.2119 22.1912 24.3128 21.4668 23.631C20.7423 22.9406 19.8091 22.5954 18.6671 22.5954C17.883 22.5954 17.15 22.8042 16.4682 23.2219C15.7949 23.6395 15.2495 24.219 14.8319 24.9605C14.4228 25.6935 14.2182 26.5415 14.2182 27.5045V39.7773H11.2012ZM50.4675 40.1864C48.6948 40.1864 47.1394 39.7645 45.8013 38.9207C44.4717 38.077 43.432 36.8966 42.682 35.3795C41.9405 33.8625 41.5698 32.0898 41.5698 30.0614C41.5698 28.0159 41.9405 26.2304 42.682 24.7048C43.432 23.1792 44.4717 21.9946 45.8013 21.1508C47.1394 20.3071 48.6948 19.8852 50.4675 19.8852C52.2402 19.8852 53.7913 20.3071 55.1209 21.1508C56.459 21.9946 57.4987 23.1792 58.2402 24.7048C58.9902 26.2304 59.3652 28.0159 59.3652 30.0614C59.3652 32.0898 58.9902 33.8625 58.2402 35.3795C57.4987 36.8966 56.459 38.077 55.1209 38.9207C53.7913 39.7645 52.2402 40.1864 50.4675 40.1864ZM50.4675 37.4761C51.8141 37.4761 52.922 37.131 53.7913 36.4406C54.6607 35.7503 55.3041 34.8426 55.7217 33.7176C56.1394 32.5926 56.3482 31.3739 56.3482 30.0614C56.3482 28.7489 56.1394 27.5258 55.7217 26.3923C55.3041 25.2588 54.6607 24.3426 53.7913 23.6437C52.922 22.9449 51.8141 22.5954 50.4675 22.5954C49.1209 22.5954 48.0129 22.9449 47.1436 23.6437C46.2743 24.3426 45.6308 25.2588 45.2132 26.3923C44.7956 27.5258 44.5868 28.7489 44.5868 30.0614C44.5868 31.3739 44.7956 32.5926 45.2132 33.7176C45.6308 34.8426 46.2743 35.7503 47.1436 36.4406C48.0129 37.131 49.1209 37.4761 50.4675 37.4761ZM79.3244 20.1409L72.063 39.7773H68.9948L61.7335 20.1409H65.0062L70.4266 35.7886H70.6312L76.0516 20.1409H79.3244ZM83.3066 39.7773V20.1409H86.3237V39.7773H83.3066ZM84.8407 16.8682C84.2526 16.8682 83.7455 16.6679 83.3194 16.2673C82.9018 15.8667 82.693 15.3852 82.693 14.8227C82.693 14.2602 82.9018 13.7787 83.3194 13.3781C83.7455 12.9775 84.2526 12.7773 84.8407 12.7773C85.4288 12.7773 85.9316 12.9775 86.3492 13.3781C86.7754 13.7787 86.9884 14.2602 86.9884 14.8227C86.9884 15.3852 86.7754 15.8667 86.3492 16.2673C85.9316 16.6679 85.4288 16.8682 84.8407 16.8682ZM100.083 40.1864C98.1905 40.1864 96.5584 39.7687 95.1862 38.9335C93.8226 38.0898 92.77 36.9136 92.0286 35.4051C91.2956 33.8881 90.9291 32.1239 90.9291 30.1125C90.9291 28.1011 91.2956 26.3284 92.0286 24.7943C92.77 23.2517 93.8013 22.05 95.1223 21.1892C96.4519 20.3199 98.003 19.8852 99.7757 19.8852C100.798 19.8852 101.808 20.0557 102.806 20.3966C103.803 20.7375 104.71 21.2915 105.529 22.0585C106.347 22.817 106.999 23.8227 107.485 25.0756C107.97 26.3284 108.213 27.871 108.213 29.7034V30.9818H93.0769V28.3739H105.145C105.145 27.2659 104.923 26.2773 104.48 25.4079C104.046 24.5386 103.423 23.8525 102.614 23.3497C101.813 22.8469 100.867 22.5954 99.7757 22.5954C98.574 22.5954 97.5342 22.8937 96.6564 23.4903C95.7871 24.0784 95.118 24.8454 94.6493 25.7915C94.1805 26.7375 93.9462 27.7517 93.9462 28.8341V30.5727C93.9462 32.0557 94.2019 33.3128 94.7132 34.344C95.2331 35.3667 95.9533 36.1466 96.8737 36.6835C97.7942 37.2119 98.8638 37.4761 100.083 37.4761C100.875 37.4761 101.591 37.3653 102.23 37.1437C102.878 36.9136 103.436 36.5727 103.905 36.121C104.374 35.6608 104.736 35.0898 104.992 34.4079L107.906 35.2261C107.6 36.2148 107.084 37.0841 106.36 37.8341C105.635 38.5756 104.74 39.1551 103.675 39.5727C102.61 39.9818 101.412 40.1864 100.083 40.1864Z" stroke="#01B0B0" stroke-width="2" stroke-linejoin="round" mask="url(#path-3-outside-1_140244_4931)"/>
<path d="M114.746 13.0952L114.81 13.0991C114.958 13.1182 115.091 13.2028 115.171 13.3315L121.598 23.7017L128.024 13.3315L128.062 13.2798C128.157 13.1642 128.298 13.0954 128.449 13.0952H132.183C132.364 13.0952 132.532 13.194 132.62 13.353C132.708 13.5123 132.702 13.7077 132.605 13.8618L124.54 26.686L132.605 39.5112C132.702 39.6653 132.708 39.8597 132.62 40.019C132.532 40.1782 132.365 40.2769 132.183 40.2769H128.449C128.278 40.2767 128.119 40.1891 128.027 40.0444L121.598 29.8638L115.168 40.0444C115.076 40.1891 114.917 40.2767 114.746 40.2769H111.013C110.83 40.2769 110.661 40.1768 110.573 40.0161C110.486 39.8555 110.494 39.66 110.593 39.5063L118.854 26.686L110.593 13.8657C110.494 13.712 110.486 13.5166 110.573 13.356C110.661 13.1953 110.83 13.0952 111.013 13.0952H114.746Z" fill="#004F4F" stroke="#004F4F" stroke-linejoin="round"/>
</g>
<defs>
<linearGradient id="paint0_linear_140244_4931" x1="143.121" y1="25.0612" x2="0.263677" y2="19.3125" gradientUnits="userSpaceOnUse">
<stop offset="0.00367077" stop-color="#017D7D" stop-opacity="0"/>
<stop offset="0.527222" stop-color="#01B0B0"/>
<stop offset="1" stop-color="#004A4A" stop-opacity="0"/>
</linearGradient>
<clipPath id="clip0_140244_4931">
<rect width="144" height="53" fill="white"/>
</clipPath>
</defs>
</svg>
